<?xml version="1.0" encoding="iso-8859-1"?>
<!-- Generator: Adobe Illustrator 16.0.0, SVG Export Plug-In . SVG Version: 6.00 Build 0)  -->
<!DOCTYPE svg PUBLIC "-//W3C//DTD SVG 1.1//EN" "http://www.w3.org/Graphics/SVG/1.1/DTD/svg11.dtd">
<svg version="1.1" id="Capa_1" xmlns="http://www.w3.org/2000/svg" xmlns:xlink="http://www.w3.org/1999/xlink" x="0px" y="0px"
	 viewBox="-60 -60 700 700" style="enable-background:new 0 0 577.03 577.029;"
	 xml:space="preserve">
	<path d="M511.458,0H65.572C46.25,0,30.6,15.649,30.6,34.971v507.085c0,19.322,15.65,34.973,34.972,34.973h445.886
		c19.321,0,34.972-15.65,34.972-34.973V34.971C546.429,15.649,530.779,0,511.458,0z M65.572,34.971h445.886v402.171H65.572V34.971z
		 M493.971,419.656H83.057V307.512c0-12.273,4.311-24.165,12.17-33.598l101.924-122.225c10.928-12.765,30.95-11.978,40.917,1.574
		l116.017,157.109l59.627-62.948c10.403-10.929,27.715-10.929,38.118,0l29.744,35.172c7.999,9.469,12.396,21.463,12.396,33.87
		V419.656z M380.315,126.771c0-26.579,21.507-48.086,48.085-48.086s48.086,21.507,48.086,48.086
		c0,26.578-21.508,48.085-48.086,48.085S380.315,153.35,380.315,126.771z"/>
</svg>
